<?xml version="1.0" standalone="no"?>
<!DOCTYPE svg PUBLIC "-//W3C//DTD SVG 1.1//EN" "http://www.w3.org/Graphics/SVG/1.1/DTD/svg11.dtd" >
<svg xmlns="http://www.w3.org/2000/svg">
<metadata>
Created by FontForge 20120731 at Tue Dec 20 12:02:07 2016
 By admin
</metadata>
<defs>
<font id="iconfont" horiz-adv-x="1024" >
  <font-face 
    font-family="iconfont"
    font-weight="500"
    font-stretch="normal"
    units-per-em="1024"
    panose-1="2 0 6 3 0 0 0 0 0 0"
    ascent="896"
    descent="-128"
    x-height="792"
    bbox="0 -212 1201.5 896.226"
    underline-thickness="0"
    underline-position="0"
    unicode-range="U+0078-E875"
  />
<missing-glyph 
 />
    <glyph glyph-name=".notdef" 
 />
    <glyph glyph-name=".notdef" 
 />
    <glyph glyph-name=".null" horiz-adv-x="0" 
 />
    <glyph glyph-name="nonmarkingreturn" horiz-adv-x="341" 
 />
    <glyph glyph-name="x" unicode="x" horiz-adv-x="1001" 
d="M281 543q-27 -1 -53 -1h-83q-18 0 -36.5 -6t-32.5 -18.5t-23 -32t-9 -45.5v-76h912v41q0 16 -0.5 30t-0.5 18q0 13 -5 29t-17 29.5t-31.5 22.5t-49.5 9h-133v-97h-438v97zM955 310v-52q0 -23 0.5 -52t0.5 -58t-10.5 -47.5t-26 -30t-33 -16t-31.5 -4.5q-14 -1 -29.5 -0.5
t-29.5 0.5h-32l-45 128h-439l-44 -128h-29h-34q-20 0 -45 1q-25 0 -41 9.5t-25.5 23t-13.5 29.5t-4 30v167h911zM163 247q-12 0 -21 -8.5t-9 -21.5t9 -21.5t21 -8.5q13 0 22 8.5t9 21.5t-9 21.5t-22 8.5zM316 123q-8 -26 -14 -48q-5 -19 -10.5 -37t-7.5 -25t-3 -15t1 -14.5
t9.5 -10.5t21.5 -4h37h67h81h80h64h36q23 0 34 12t2 38q-5 13 -9.5 30.5t-9.5 34.5q-5 19 -11 39h-368zM336 498v228q0 11 2.5 23t10 21.5t20.5 15.5t34 6h188q31 0 51.5 -14.5t20.5 -52.5v-227h-327z" />
    <glyph glyph-name="s-up" unicode="&#xe600;" horiz-adv-x="1000" 
d="M35 134l434 593l433 -593h-867z" />
    <glyph glyph-name="fdj" unicode="&#xe634;" 
d="M850 95l1 1l-198 193q60 71 63 161q3 53 -17 105t-57 91q-67 71 -165 83q-18 3 -37 3q-95 0 -168 -56q-41 -31 -68 -75t-36 -93q-17 -97 33 -181q34 -57 90 -93q52 -32 113 -40q18 -2 36 -2q88 0 158 48l198 -193l4 -3v0q10 -8 23 -8q15 0 26 10.5t11 24.5t-10 24z
M650 359q-24 -48 -70 -81.5t-100 -41.5q-52 -9 -103 5q-49 13 -88.5 45.5t-60.5 77.5q-24 50 -21.5 108.5t32.5 105.5q26 44 69 73t94 37h5q5 1 8 1q12 2 25 2q53 0 99 -21q41 -19 72.5 -52t47.5 -74q18 -45 15.5 -93.5t-24.5 -91.5z" />
    <glyph glyph-name="tubiao4" unicode="&#xe6e4;" 
d="M817.5 -108q-33.5 0 -57.5 24t-24 58t24 57.5t57.5 23.5t57.5 -23.5t24 -57.5t-24 -58t-57.5 -24zM817.5 18q-18.5 0 -31.5 -13t-13 -31t13 -31t31.5 -13t31 13t12.5 31t-12.5 31t-31 13zM449.5 -108q-33.5 0 -57.5 24t-24 58t24 57.5t57.5 23.5t57.5 -23.5t24 -57.5
t-24 -58t-57.5 -24zM449 18q-18 0 -31 -13t-13 -31t13 -31t31 -13t31 13t13 31t-13 31t-31 13zM893 79h-582q-10 0 -15.5 8.5t-2.5 17.5l54 143l-143 422h-121q-8 0 -13.5 5.5t-5.5 13.5t5.5 13.5t13.5 5.5h135q13 0 17 -13l150 -441q2 -6 0 -13l-47 -124h555q8 0 13.5 -5.5
t5.5 -13t-5.5 -13.5t-13.5 -6zM836 229h-469q-8 0 -13.5 5.5t-5.5 13.5t5.5 13.5t13.5 5.5h456l92 290h-655q-8 0 -13.5 5.5t-5.5 13.5t5.5 13.5t13.5 5.5h681q10 0 15 -8q6 -8 3 -17l-105 -328q-4 -13 -18 -13z" />
    <glyph glyph-name="classification" unicode="&#xe6dc;" 
d="M82 176q-29 0 -50.5 -21t-21.5 -49t22 -50t50 -22t49 21.5t21 50.5q0 28 -21 49t-49 21zM82 520q-29 0 -50.5 -21t-21.5 -49t21.5 -49t50.5 -21q28 0 49 21t21 49t-21 49t-49 21zM338 730h606q27 0 46.5 18.5t19.5 45.5t-19.5 46.5t-46.5 19.5h-606q-27 0 -46.5 -19.5
t-19.5 -46.5t19.5 -45.5t46.5 -18.5zM82 866q-28 0 -50 -22t-22 -50t21.5 -49t50.5 -21q28 0 49 21t21 49q0 29 -21 50.5t-49 21.5zM944 516h-606q-27 0 -46.5 -19.5t-19.5 -46.5t19.5 -46.5t46.5 -19.5h606q27 0 46.5 19.5t19.5 46.5t-19.5 46.5t-46.5 19.5zM944 172h-606
q-27 0 -46.5 -19.5t-19.5 -46.5t19.5 -46.5t46.5 -19.5h606q27 0 46.5 19.5t19.5 46.5t-19.5 46.5t-46.5 19.5z" />
    <glyph glyph-name="menu" unicode="&#xe609;" 
d="M880 -66h-255q-32 0 -57 33.5t-25 69.5v233q0 34 24 58t58 24h255q34 0 58 -24t24 -58v-254q0 -34 -24 -58t-58 -24zM920 267q0 17 -12.5 29.5t-29.5 12.5h-251q-17 0 -29.5 -12.5t-12.5 -29.5v-251q0 -17 12.5 -29.5t29.5 -12.5h251q17 0 29.5 12.5t12.5 29.5v251z
M880 415h-255q-32 0 -57 33.5t-25 69.5v233q0 34 24 58t58 24h255q34 0 58 -24t24 -58v-254q0 -33 -24 -57.5t-58 -24.5zM920 748q0 18 -12.5 30t-29.5 12h-251q-17 0 -29.5 -12t-12.5 -30v-251q0 -17 12.5 -29.5t29.5 -12.5h251q17 0 29.5 12.5t12.5 29.5v251zM399 -66
h-255q-32 0 -57 33.5t-25 69.5v233q0 34 24 58t58 24h255q34 0 58 -24t24 -58v-254q0 -34 -24 -58t-58 -24zM439 267q0 17 -12.5 29.5t-29.5 12.5h-251q-18 0 -30 -12.5t-12 -29.5v-251q0 -17 12 -29.5t30 -12.5h251q17 0 29.5 12.5t12.5 29.5v251zM399 415h-255
q-32 0 -57 33.5t-25 69.5v233q0 34 24 58t58 24h255q34 0 58 -24t24 -58v-254q0 -33 -24 -57.5t-58 -24.5zM439 748q0 18 -12.5 30t-29.5 12h-251q-18 0 -30 -12t-12 -30v-251q0 -17 12 -29.5t30 -12.5h251q17 0 29.5 12.5t12.5 29.5v251z" />
    <glyph glyph-name="round-plus" unicode="&#xe60c;" 
d="M513.5 893q-103.5 0 -197.5 -40t-162.5 -108.5t-109 -163t-40.5 -197.5t40.5 -197.5t109 -163t162.5 -108.5t197.5 -40t198 40t162.5 108.5t108.5 163t40.5 197.5t-40.5 197.5t-108.5 163t-162.5 108.5t-198 40zM514 -78q-94 0 -179.5 36.5t-147.5 98.5t-98.5 147.5
t-36.5 179.5t36.5 179.5t98.5 147.5t147.5 98.5t179.5 36.5t179.5 -36.5t147 -98.5t98 -147.5t36.5 -179.5t-36.5 -179.5t-98 -147.5t-147 -98.5t-179.5 -36.5zM546 417v187h-65v-187h-188v-66h188v-188h65v188h188v66h-188z" />
    <glyph glyph-name="layers" unicode="&#xe65a;" 
d="M750 168v1v0v0v-1zM725 181v0v0v0v0zM123 429l377 -215q11 -7 22 0h0.5h0.5l378 215q11 7 11 20q0 14 -11 20l-378 215l-0.5 0.5l-0.5 0.5q-11 6 -22 0l-377 -215q-12 -7 -11 -21q-1 -13 11 -20zM511 639l334 -190l-334 -190l-333 190zM123 264l377 -215q11 -6 22 0h0.5
h0.5l378 216q8 4 10.5 13t-2 17t-13.5 10.5t-17 -1.5l-368 -209l-366 208q-8 5 -17 2.5t-13.5 -11t-2 -17.5t10.5 -13zM879 146l-368 -209l-366 208q-8 5 -17 2.5t-13.5 -10.5t-2 -17t10.5 -14l377 -215q11 -6 22 0l0.5 0.5l0.5 0.5l378 215q8 4 10.5 13t-2 17.5t-13.5 11
t-17 -2.5z" />
    <glyph glyph-name="message" unicode="&#xe60d;" 
d="M713 514h-402q-14 0 -23.5 -10t-9.5 -24t9.5 -23.5t23.5 -9.5h402q14 0 23.5 9.5t9.5 23.5t-9.5 24t-23.5 10zM713 648h-402q-14 0 -23.5 -10t-9.5 -24t9.5 -23.5t23.5 -9.5h402q14 0 23.5 9.5t9.5 23.5t-9.5 24t-23.5 10zM880 250v464q0 28 -19.5 47.5t-47.5 19.5h-602
q-28 0 -47.5 -19.5t-19.5 -47.5v-669q0 -28 19.5 -47.5t47.5 -19.5h394q18 -4 31 9l235 235q11 12 9 28zM646 92v120h120zM813 279h-201q-14 0 -23.5 -9.5t-9.5 -23.5v0v0v-201h-335q-14 0 -23.5 10t-9.5 23v603q0 14 9.5 23.5t23.5 9.5h536q14 0 23.5 -9.5t9.5 -23.5v-402z
" />
    <glyph glyph-name="plus" unicode="&#xe60e;" 
d="M544 768h-64v-352h-352v-64h352v-352h64v352h352v64h-352v352z" />
    <glyph glyph-name="xiaolian" unicode="&#xe6d7;" 
d="M529.5 74q80.5 0 145 48t89.5 124q-14 -1 -64 -1q-33 -62 -67.5 -88t-98.5 -26q-67 0 -108 26.5t-68 87.5h-33h-30q25 -75 89.5 -123t145 -48zM623 715.5q-113 30.5 -223.5 0.5t-191.5 -110.5t-111 -193.5t0 -223.5t110.5 -192t193.5 -111.5q90 -23 175 -10.5t159 57.5
l-1 1q21 11 21 35q0 17 -12 29t-29 12q-10 0 -19 -5h-1q-60 -37 -129 -47.5t-143 7.5q-91 25 -156 90.5t-89.5 155t0 180.5t90 156.5t154.5 89.5t180.5 -0.5t156.5 -90t89.5 -155t0.5 -180.5q-13 -49 -40 -92l1 -1q-5 -9 -5 -19q0 -17 11.5 -29t28.5 -12q24 0 36 20v0
q32 53 47 111q30 113 0 223.5t-110.5 192t-193.5 112zM684 367q19 -5 35.5 5t21.5 28.5t-4.5 35.5t-28.5 22t-35.5 -4.5t-21.5 -28.5t4.5 -36t28.5 -22zM377 401q5 19 -4.5 35.5t-28.5 22t-36 -4.5t-22 -28.5t5 -35.5t28.5 -22t35.5 4.5t22 28.5z" />
    <glyph glyph-name="liebiao" unicode="&#xe875;" 
d="M179 608h-90q-10 0 -17.5 -7.5t-7.5 -18t7.5 -18t17.5 -7.5h90q10 0 17.5 7.5t7.5 18t-7.5 18t-17.5 7.5zM322 557h611q10 0 17.5 7.5t7.5 18t-7.5 18t-17.5 7.5h-611q-10 0 -17.5 -7.5t-7.5 -18t7.5 -18t17.5 -7.5zM179 327h-90q-10 0 -17.5 -7.5t-7.5 -18t7.5 -18
t17.5 -7.5h90q10 0 17.5 7.5t7.5 18t-7.5 18t-17.5 7.5zM933 327h-611q-10 0 -17.5 -7.5t-7.5 -18t7.5 -18t17.5 -7.5h611q10 0 17.5 7.5t7.5 18t-7.5 18t-17.5 7.5zM179 46h-90q-10 0 -17.5 -7.5t-7.5 -18t7.5 -18t17.5 -7.5h90q10 0 17.5 7.5t7.5 18t-7.5 18t-17.5 7.5z
M933 46h-611q-10 0 -17.5 -7.5t-7.5 -18t7.5 -18t17.5 -7.5h611q10 0 17.5 7.5t7.5 18t-7.5 18t-17.5 7.5z" />
    <glyph glyph-name="right" unicode="&#xe60f;" 
d="M284 722l57 59l399 -397l-399 -397l-57 59l336 338z" />
    <glyph glyph-name="left" unicode="&#xe610;" 
d="M740 722l-57 59l-399 -397l399 -397l57 59l-336 338z" />
    <glyph glyph-name="minus" unicode="&#xe611;" 
d="M96 352q-13 0 -22.5 9.5t-9.5 22.5v0q0 13 9.5 22.5t22.5 9.5h832q13 0 22.5 -9.5t9.5 -22.5v0q0 -13 -9.5 -22.5t-22.5 -9.5h-832z" />
    <glyph glyph-name="friends" unicode="&#xe62c;" 
d="M893 -26q-28 9 -52.5 26.5t-41 38.5t-27 38t-17.5 34q56 172 57 174q11 35 5 73t-28 66q-44 60 -131 60h-193q-21 0 -36 -15t-15 -36t15 -36t36 -15h194q34 0 48 -18q15 -22 7 -48l-30 -94q-64 88 -155 88q-90 0 -154 -64t-64 -154.5t64 -154.5t154 -64q60 0 109 35
q38 28 64 72q4 7 5 9q63 -83 154 -114q7 -2 16 -2q17 0 30.5 9.5t18.5 25.5q6 21 -3 40t-30 26zM529 -24q-48 0 -82 34t-34 82t34 82t82 34q21 0 40.5 -13.5t33 -35t21.5 -38t14 -33.5q-5 -15 -12.5 -31t-20.5 -36t-33 -32.5t-43 -12.5zM877 578q22 0 37 15t15 36t-15 36
t-37 15h-423l36 112h79q21 0 36 15t15 36.5t-15 36.5t-36 15h-117q-16 0 -29.5 -10t-18.5 -26l-58 -179h-190q-22 0 -37 -15t-15 -36.5t15 -36.5t37 -15h156l-206 -637q-6 -20 3.5 -39t30.5 -26q6 -2 16 -2q16 0 29.5 9.5t18.5 25.5l216 670h457z" />
    <glyph glyph-name="fdj2" unicode="&#xe638;" 
d="M956 -8l-130 107q41 51 65 112q34 83 34 173t-34 173q-32 80 -91 141.5t-136 95.5q-79 35 -166.5 35t-166.5 -35q-77 -34 -136 -95.5t-91 -141.5q-34 -83 -34 -173t34 -173q32 -80 91 -141.5t136 -95.5q79 -35 166.5 -35t166.5 35q67 29 120 80l133 -110q8 -7 19 -7
q15 0 24 11q8 10 7 23t-11 21v0zM498 0q-100 0 -184 51.5t-133 140t-49 192.5t49 192.5t133 140t183.5 51.5t183.5 -51.5t133 -140t49 -192.5t-49 -192.5t-133 -140t-183 -51.5v0z" />
    <glyph glyph-name="breakfast" unicode="&#xe61a;" horiz-adv-x="1449" 
d="M1201 391q-2 15 -12 21q-4 3 -21 3h-20h-98h-371q-2 18 -2 25q-1 2 -1 8t-1 9v8t-0.5 9t-0.5 8q-1 23 -1 31v8v13v8t1 28h398h72h22h14q14 5 17 22q2 12 -11 21q-6 4 -34 4h-74h-400q5 32 10 49q2 7 5 15q1 4 3 9h191.5h188.5h70h21q10 0 12 1q15 4 18 20q2 12 -8 20
q-5 5 -10 6h-10h-14h-56h-329l2 6q8 15 9 21q1 7 -3 13q-8 15 -24 13q-3 0 -9 -1q-14 -2 -15 -3q-18 -5 -33 -16q-6 -5 -9 -7q-3 -3 -6 -7q-1 0 -2.5 -2t-2.5 -3q-6 -8 -10 -14q-17 -27 -28 -73q-2 -6 -4 -17.5t-3 -13.5q-1 -6 -2 -16.5t-1 -15.5q-1 -3 -1 -10q-1 -4 -1 -12
t-1 -11v-5v-4v-12q0 -2 -0.5 -6.5t-0.5 -6.5v-14q1 -11 1 -23v-7v-7t0.5 -5.5t0.5 -5.5v-7q1 -5 1.5 -13t0.5 -12q2 -17 2 -25v0h-50.5h-50.5q0 2 -0.5 5t-0.5 6.5t-1 6.5q-1 22 -2 26v10q-1 2 -1 6.5v6.5q0 4 -0.5 10.5t-0.5 8.5v19v15v7v8t0.5 9.5t0.5 8.5v6v6q1 3 1 8
q1 13 3 24q0 4 2 16l3 18q0 1 2 9l3 12q10 34 24 52q13 16 31 22l11 1q1 1 3.5 1h4.5q9 2 13 8q4 4 5 8q3 10 -2 18.5t-13 11.5q-11 3 -30 -2q-36 -8 -56 -34q-9 -11 -11 -15q-14 -22 -25 -57q-1 -4 -9 -40q-2 -7 -3 -19t-2 -17q0 -3 -0.5 -7.5t-0.5 -7.5q-1 -4 -1 -12
t-1 -12v-9v-10q0 -7 -1 -13v-14q1 -4 1 -11.5v-11.5q0 -5 1 -18v-6v-6q1 -5 1 -8q0 -9 2 -27q1 -8 2 -17v0h-100q-2 20 -2 22q-1 4 -1.5 12t-0.5 11q-1 19 -2 28v10v20v19v6v16q0 8 1 13v10q2 17 3 26q0 4 2 17.5t4 20.5q5 23 6 25q4 14 10 27q14 31 37 41q5 2 15 3
q2 1 6.5 1h6.5q13 5 17 19q1 8 -3 15q-5 9 -14 12q-11 3 -29 -2q-36 -8 -56 -33q-11 -14 -12 -17h-52q-22 0 -26 -1q-11 -4 -14 -16q-3 -9 3 -18q4 -8 13 -11q3 -1 19 -1h35v0q-2 -7 -3 -11t-8 -34q0 -4 -1 -10t-2 -9q0 -1 -0.5 -4t-0.5 -5h-8h-8h-12q-6 -1 -8 -1
q-13 -2 -18 -13q-1 -3 -2 -8q-1 -7 3 -14q5 -8 14 -11q3 -1 14 -1h21v-6v-6q-1 -5 -1 -10v-9v-11v-24q1 -8 1 -10v-7t0.5 -9t1.5 -25q0 -6 1.5 -18.5t1.5 -18.5h-68q-28 0 -33 -2q-8 -4 -12 -13.5t1 -19.5q5 -9 14 -12h3t2 -1h909q0 -2 -1 -6.5t-2 -6.5q0 -2 -2 -12t-3 -16
q-14 -51 -32 -93q-46 -107 -128 -168q-16 -12 -29 -21q-3 -2 -9 -5l-8 -4q-10 -6 -19 -10q-21 -9 -29 -13q-8 -3 -32 -10q-3 -1 -31 -8q-6 -2 -17 -3.5t-15 -2.5q-5 -1 -14.5 -2t-13.5 -1q-2 0 -5 -0.5t-4 -0.5q-3 0 -8 -0.5t-7 -0.5h-16h-6h-13h-5h-7h-7q-3 0 -9.5 0.5
t-9.5 0.5q-8 1 -12 1q-5 1 -15 2t-16 2q-1 0 -14 2.5t-20 4.5q-45 11 -77 25q-41 18 -82 47q-1 1 -21 17q-2 2 -5 4.5l-3 2.5l-6.5 6.5t-7.5 6.5l-1.5 1.5l-1.5 1.5q-4 3 -8 8q-1 2 -4.5 5.5t-5.5 4.5q-2 3 -6 7.5t-6 6.5q-23 30 -30 41q-8 13 -15 25q-1 2 -3.5 6t-3.5 6
q-3 8 -6 13q-1 3 -4 9t-4 9q-5 12 -6 13q-10 15 -27 8q-10 -4 -14 -14q-4 -8 1 -20q7 -18 15 -33q17 -33 34 -57q9 -13 23 -31q4 -5 11 -13t10 -12l5 -5l4 -4q4 -5 8 -8l5.5 -5.5l5.5 -5.5q3 -1 7 -5.5t7 -6.5q24 -19 32 -25q47 -33 106 -56q9 -3 54 -17q2 0 6 -1t6 -2
l47 -8q12 -2 17 -2q4 -1 11 -1.5t10 -0.5t7.5 -0.5t5.5 -0.5h5h6q4 0 6 -1h7.5h8.5h7h7q2 1 5 1h4h11q3 0 8 0.5t8 0.5q6 1 18 2q3 0 7.5 0.5t6.5 1.5q3 0 16 2t20 4q8 2 21 5q42 12 51 16q43 17 76 38q17 10 41 29q4 3 11 9t10 9q2 3 7 7t9 9q0 1 1.5 2t2.5 2q2 2 6 6.5
t6 7.5q2 2 6.5 7t6.5 8q20 26 30 42q21 34 37 72q3 6 14 33q3 8 14 44q3 8 13 57q2 11 3 21q1 1 1.5 5.5t0.5 7.5q1 5 0 7z" />
    <glyph glyph-name="star-grey" unicode="&#xe64d;" 
d="M987 526q0 -12 -14 -27l-208 -202l49 -286q1 -4 1 -12q0 -12 -6 -20t-18 -8q-10 0 -22 7l-257 135l-257 -135q-12 -7 -22 -7q-12 0 -18 8t-6 20q0 4 1 12l49 286l-208 202q-14 15 -14 27q0 21 32 27l286 41l129 260q11 24 28 24t28 -24l129 -260l286 -41q32 -6 32 -27z
" />
    <glyph glyph-name="geren" unicode="&#xe66f;" 
d="M876 -54v0q0 1 -0.5 2l-0.5 1q-1 2 -1 3q-58 167 -216 229q63 38 100.5 103t37.5 141q0 118 -83 201.5t-201 83.5t-201 -83.5t-83 -201.5q0 -76 37.5 -141t100.5 -103q-76 -30 -130.5 -89.5t-83.5 -139.5q-1 -1 -1 -2t-1 -2.5t-1 -2.5l1 -1l-0.5 -1.5t-0.5 -2.5
q0 -13 6 -21t18 -8q20 0 27 19q39 101 116 162t196 61q120 0 197 -61.5t117 -162.5l0.5 -0.5l0.5 -0.5v-1t1 -1v0q8 -15 25 -15q12 0 18 8t6 21q0 1 -1 6zM286 425q0 94 66 160t160 66t160 -66t66 -160t-66 -160t-160 -66t-160 66t-66 160z" />
    <glyph glyph-name="more" unicode="&#xe602;" 
d="M343.5 435q-21.5 0 -36.5 -15t-15 -36t15 -36t36.5 -15t36.5 15t15 36t-15 36t-36.5 15zM507 435q-21 0 -36 -15t-15 -36t15 -36t36 -15t36 15t15 36t-15 36t-36 15zM680.5 435q-21.5 0 -36.5 -15t-15 -36t15 -36t36.5 -15t36.5 15t15 36t-15 36t-36.5 15z" />
    <glyph glyph-name="del" unicode="&#xe624;" 
d="M816.5 522q-11.5 0 -19.5 -8t-8 -20v-484q0 -34 -24.5 -58.5t-58.5 -24.5h-332q-35 0 -59 24.5t-24 58.5v484q0 12 -8 20t-19.5 8t-20 -8t-8.5 -20v-484q0 -57 41 -97.5t98 -40.5h332q57 0 97.5 40.5t40.5 97.5v484q0 12 -8 20t-19.5 8zM429 10v387q0 12 -8 20t-19.5 8
t-19.5 -8t-8 -20v-387q0 -11 8 -19t19.5 -8t19.5 8t8 19zM567 10v387q0 12 -8 20t-19.5 8t-19.5 -8t-8 -20v-387q0 -11 8 -19t19.5 -8t19.5 8t8 19zM706 10v387q0 12 -8.5 20t-19.5 8t-19.5 -8t-8.5 -20v-387q0 -11 8.5 -19t19.5 -8t19.5 8t8.5 19zM895 745l-13 54
q-9 33 -38.5 50.5t-62.5 9.5l-215 -54l-7 28q-8 33 -37.5 51t-62.5 9.5t-51 -38t-10 -62.5l8 -28l-215 -54q-33 -8 -51 -37.5t-10 -62.5l14 -54q3 -11 12.5 -17t21.5 -3l697 174q11 3 17 13t3 21zM472 840q11 3 21 -3t13 -17l7 -28l-54 -14l-7 28q-3 11 3 21t17 13zM191 597
l-7 27q-3 11 3 21t17 13l590 147q12 3 21.5 -3t12.5 -17l7 -27z" />
    <glyph glyph-name="positioning" unicode="&#xe633;" 
d="M511 833q78 0 147.5 -30.5t122.5 -84.5q96 -100 109 -242t-64 -258q-64 -97 -170 -142l-121 -128q-10 -10 -24 -10t-23 10h-1v0l-121 128q-106 45 -170 142q-77 116 -64 258t109 242q53 54 122.5 84.5t147.5 30.5v0zM511 639v0q79 0 135 -58q57 -58 57 -140t-57 -140
q-56 -58 -135 -58t-135 58q-57 58 -57 140t57 140q56 58 135 58v0zM618 551v0q-44 46 -107 46t-107 -46q-44 -45 -44 -110q0 -64 44 -110q45 -46 107 -46t107 46q44 46 44 110q0 65 -44 110v0zM733 669v0q-92 95 -222 95q-64 0 -121.5 -25t-101.5 -70q-79 -82 -89.5 -199.5
t52.5 -212.5q55 -83 145 -120q6 -2 12 -8l103 -108l102 108q5 5 12 8q92 37 146 120q63 95 52.5 212.5t-90.5 199.5v0z" />
    <glyph glyph-name="attention" unicode="&#xe61e;" 
d="M514 749q-126 0 -232.5 -50t-168.5 -135.5t-62 -186t62 -186t168.5 -135.5t232.5 -50t232.5 50t168.5 135.5t62 186t-62.5 186t-169 135.5t-231.5 50zM514 68q-108 0 -200 41.5t-145.5 112.5t-53.5 154t53 154t145 113t201 42q108 0 200 -41.5t145.5 -112t53.5 -153.5
t-53.5 -154.5t-145.5 -113.5t-200 -42zM514 553q-72 0 -123.5 -51.5t-51.5 -123.5t51.5 -123.5t123.5 -51.5t123.5 51.5t51.5 123.5t-51.5 123.5t-123.5 51.5zM514 265q-46 0 -78.5 32.5t-32.5 77.5t33 78t78 33t78 -33t33 -77.5t-33 -77.5t-78 -33z" />
    <glyph glyph-name="sale" unicode="&#xe607;" horiz-adv-x="1042" 
d="M935 491h-76l-245 174q3 11 3 19q0 40 -29 69t-69.5 29t-69 -29t-28.5 -69q0 -9 3 -21l-241 -172h-77q-44 0 -75 -31t-31 -75v-444q0 -44 31 -75.5t75 -31.5h829q44 0 75 31.5t31 75.5v444q0 44 -31 75t-75 31zM519 720q15 0 25.5 -10.5t10.5 -25.5t-10.5 -26t-25.5 -11
t-26 11t-11 26t11 25.5t26 10.5zM455 609q28 -23 64 -23q37 0 65 25l168 -120h-463zM979 -59q0 -19 -13 -32t-31 -13h-829q-18 0 -31 13t-13 32v444q0 19 13 32t31 13h829q18 0 31 -13t13 -32v-444zM330 169q-10 15 -30 24q-13 6 -47 14q-31 7 -37 13q-5 4 -5 11q0 9 8 16
q9 7 30 7t31 -8q9 -8 11 -24l1 -8l42 3v8q-1 20 -12 37q-11 16 -30 25q-19 8 -44 8q-22 0 -40 -8q-20 -8 -30 -24q-10 -15 -10 -33q0 -16 8 -30q9 -14 25 -22q13 -7 42 -14q26 -6 35 -9q11 -5 15 -10t4 -12t-4 -13q-4 -5 -14 -9q-11 -4 -24 -4q-16 0 -28 5t-17.5 13t-6.5 22
l-1 8l-42 -4v-7q1 -23 13 -41.5t33 -27.5t50 -9q24 0 43 9q20 9 30.5 25t10.5 36q0 18 -10 33zM594 291h-44v-220l-90 220h-41l-85 -222h47l22 63h75l23 -63h194v41h-101v181zM417 170l19 49q2 7 4 13q2 -8 5 -16l18 -46h-46zM881 110h-126v53h113v41h-113v47h121v40h-165
v-221h170v32v8z" />
    <glyph glyph-name="hair" unicode="&#xe6b5;" 
d="M511 -61q-90 0 -172.5 35.5t-142 95t-95 142t-35.5 173t35.5 173t95 142t142 95t173 35.5t173 -35.5t142 -95t95 -142t35.5 -173t-35.5 -173t-95 -142t-142 -95t-173.5 -35.5v0zM511 802q-113 0 -209 -56t-152 -152t-56 -209.5t56 -209.5t152 -152t209.5 -56t209.5 56
t152 152t56 209.5t-56 209.5t-152 152t-210 56v0zM721 589q0 -8 -61.5 -13.5t-148.5 -5.5t-148.5 5.5t-61.5 13.5t61.5 13.5t148.5 5.5t148.5 -5.5t61.5 -13.5zM319 496q92 -12 190 -12q47 0 95 3t70.5 6t30.5 4l16 5v74q-83 -15 -207 -16q-55 -1 -108.5 2.5t-80.5 7.5
l-26 4v-72v0q7 -4 20 -6zM752 380q-3 30 -12 46q-14 29 -14 44q2 13 -2 16q-3 2 -13 3q-84 -17 -200 -17q-55 1 -103.5 5t-70.5 7l-21 4l-11 1q-3 -1 -5 -1.5t-2 -1.5l-1 -1q2 -13 0 -20l-10.5 -25.5t-11.5 -36.5l-5 -202q1 -8 10 -19q11 -12 28 -15q20 -10 111 -12
q60 -3 147.5 -1.5t138.5 11.5q24 5 35.5 16t11.5 20v9v170zM698 262l-17 -6v132l-6 42l17 3l6 -44v-127z" />
    <glyph glyph-name="xinfeng" unicode="&#xe635;" 
d="M527 608h342q46 0 67.5 -20.5t20.5 -66.5v-209.5v-209.5q-1 -58 -26.5 -82.5t-85.5 -24.5q-355 -1 -655 0q-59 0 -92 33t-34 91v376q0 61 26 86.5t89 26.5h348v0zM518 49h328q32 -1 45 11t12 44q-1 59 -1 157v157q0 4 1 13.5t1 15t-3.5 12t-11.5 9.5q-7 1 -11 2t-10 -2.5
t-8.5 -6t-8.5 -7.5t-9 -8q-12 -10 -123 -97t-168 -134q-23 -20 -41 -20t-41 20q-54 45 -155.5 125.5t-139.5 111.5q-1 1 -6.5 5.5t-6.5 5t-6.5 4.5t-7 3.5t-7 1.5t-8.5 -1q-7 -2 -10.5 -7.5t-3.5 -10t0.5 -13t0.5 -11.5q0 -34 0.5 -150t-1.5 -150q0 -42 19 -61t60 -19h321z
M140 549q32 -29 32 -30q159 -126 183 -144q31 -24 44 -34t35.5 -24.5t30 -19.5t26 -10t24.5 -4.5t24 5t25.5 10t29.5 20t35 25t43 34.5q16 12 211 172h-743z" />
    <glyph glyph-name="footer-heart" unicode="&#xe626;" 
d="M489 11l-306 307q-50 50 -67 111q-16 62 4 124q19 56 63 99t100 60q62 21 128 4q54 -14 100 -53q46 39 100 53q64 16 128 -4q57 -18 100.5 -60.5t61.5 -98.5v0q21 -62 5 -124q-17 -62 -67 -111l-1 -1l-305 -306q-10 -9 -22.5 -9t-21.5 9v0zM547 613v0v0l-98 -98
q-6 -6 -13.5 -6t-12.5 6q-6 5 -6 12.5t5 12.5l63 63l-1 2q-41 38 -89 51q-46 13 -94 -2q-43 -14 -75.5 -46t-46.5 -74q-15 -45 -3 -89q12 -46 50 -83l285 -285l283 283l2 2q38 37 50 83q12 44 -3 88v1q-14 41 -47 73.5t-75 46.5q-46 14 -94 2q-42 -11 -80 -43v0z" />
    <glyph glyph-name="healthy" unicode="&#xe678;" horiz-adv-x="1025" 
d="M822.5 711.5q-3.5 14.5 -18.5 18.5q-45 13 -108 13q-150 0 -259 -85q-105 -82 -168 -315q-27 -102 -41 -203l-71 -62q-8 -7 -8.5 -17.5t6.5 -18.5q8 -9 19 -9q10 0 17 6l69 60q74 -14 141 -14q89 0 158 25q90 32 142 103q38 52 61.5 105.5t31.5 91.5t8 81.5t-3 63
t-9 48.5q-3 11 -3 15q-3 15 5 33t13.5 25t9.5 11q11 10 7.5 24.5zM736 609q1 -5 4 -17q5 -27 8 -44.5t3 -56.5t-7.5 -72.5t-28.5 -81t-55 -94.5q-79 -107 -259 -107q-57 0 -120 11q5 35 12 73t23.5 100.5t35.5 114.5t50 103.5t66 78.5q96 75 228 75q28 0 57 -4
q-23 -40 -17 -79zM705 492l-7.5 2.5t-17 4t-25.5 3t-33.5 -1t-40.5 -6.5q24 36 52.5 68.5t39.5 42t17 14.5q12 9 2.5 21t-21.5 3q-7 -6 -18.5 -16t-41 -43t-54.5 -71q2 39 18 67q7 14 -6.5 21.5t-20.5 -6.5q-2 -3 -4 -8t-7 -19t-7.5 -27.5t-4 -34t3.5 -38.5l-18 -34
q-28 -57 -76 -115q-12 64 11 170q1 6 -2 11.5t-9.5 7t-12 -2t-6.5 -9.5q-1 -7 -3 -17t-6 -36.5t-5.5 -50t0 -51.5t8.5 -47q0 -1 1 -3q-54 -60 -103 -97q-12 -10 -2 -22q4 -6 12 -6q5 0 9 3q35 27 79 72q23 23 43 47q24 18 73 27.5t72 10t38 -0.5q6 0 11 4t5 10.5t-4 11
t-11 5.5q-78 3 -143 -16q29 41 49 80q8 17 17 33q50 20 97 18q25 -2 40 -8q6 -2 12 0.5t8 8.5t0 11.5t-8 8.5z" />
    <glyph glyph-name="lock" unicode="&#xe615;" 
d="M823 450h-68v159q0 101 -71.5 172t-171.5 71t-171.5 -71t-71.5 -172v-159h-68q-25 0 -42.5 -18t-17.5 -42v-438q0 -25 17.5 -42.5t42.5 -17.5h622q25 0 42.5 17.5t17.5 42.5v438q0 24 -17.5 42t-42.5 18zM546 159v-95q0 -8 -8 -8h-52q-8 0 -8 8v95q-18 10 -29.5 27.5
t-11.5 39.5q0 31 22 52.5t53 21.5t53 -21.5t22 -52.5q0 -22 -11.5 -39.5t-29.5 -27.5zM662 450h-299v155q0 62 43.5 106t105.5 44t106 -44t44 -106v-155z" />
    <glyph glyph-name="share" unicode="&#xe636;" 
d="M863 40h-695v695h347v99h-347q-41 0 -70 -29t-29 -70v-695q0 -41 29 -70t70 -29h695q41 0 70 29t29 70v347h-99v-347zM615 834v-99h178l-488 -488l70 -70l488 488v-178h99v347h-347z" />
    <glyph glyph-name="personal" unicode="&#xe63a;" 
d="M631 -25h-238q-5 0 -11.5 0.5t-24.5 5.5t-31.5 14.5t-24.5 31t-11 50.5v341h1q5 63 42 113.5t94 74.5v85h68v68h-34l-102 -34l-35 34l103 34h204v-34h-102v-68h68v-85q57 -24 94 -74.5t42 -113.5h1v-341q0 -29 -10.5 -50t-25.5 -30.5t-30.5 -15t-25.5 -6.5h-11zM324 179
h137v34h-137v-34zM461 350h-137v-34h137v34zM495 282h-171v-34h171v34z" />
    <glyph glyph-name="chenggong" unicode="&#xe63d;" 
d="M512 -212q-104 0 -199 40.5t-163.5 109t-109 163.5t-40.5 199t40.5 199t109 163.5t163.5 109t199 40.5t199 -40.5t163.5 -109t109 -163.5t40.5 -199t-40.5 -199t-109 -163.5t-163.5 -109t-199 -40.5v0zM758 436q-11 10 -26 10t-26 -10l-267 -270l-118 121
q-10 11 -25.5 11.5t-26 -10.5t-11 -26t10.5 -26l144 -148v0v0q2 -2 8 -5q1 -1 2.5 -2l1.5 -1q7 -3 14 -3t14 3q1 0 2 1l2 2q6 3 8 5v0v0l293 296q11 11 10.5 26t-10.5 26v0z" />
    <glyph glyph-name="forward" unicode="&#xe61f;" 
d="M914 335q-19 0 -32 -13t-13 -31v-229q0 -15 -10.5 -25.5t-25.5 -10.5h-644q-15 0 -25 10.5t-10 25.5v644q0 15 10 25.5t25 10.5h202q18 0 31 13t13 31.5t-13 31.5t-31 13h-202q-52 0 -88.5 -36.5t-36.5 -88.5v-644q0 -52 36.5 -88.5t88.5 -36.5h644q52 0 89 36.5t37 88.5
v229q0 18 -13.5 31t-31.5 13v0zM461 192h4q17 0 30 11.5t14 28.5q3 33 13.5 80t27.5 79q15 28 25.5 45.5t36 49.5t52 52t69.5 39t93 25l9 3l-76 -157q-8 -17 -1.5 -34.5t22.5 -25.5q10 -4 20 -4q28 0 40 25l116 242q8 17 1.5 34.5t-22.5 25.5l-242 116q-17 8 -34.5 1.5
t-25.5 -23t-2 -34t23 -25.5l127 -61q-56 -11 -104.5 -36t-79 -50t-59.5 -61.5t-40.5 -56t-26.5 -48.5q-40 -74 -51 -193q-1 -18 10.5 -32.5t30.5 -15.5v0zM461 192z" />
    <glyph glyph-name="list-down" unicode="&#xe61c;" 
d="M840 602h-246q-11 0 -19 8t-8 19.5t8 19.5t19 8h246q12 0 20 -8t8 -19.5t-8 -19.5t-20 -8v0zM840 465h-246q-11 0 -19 8t-8 19.5t8 19.5t19 8h246q12 0 20 -8t8 -19.5t-8 -19.5t-20 -8v0zM840 246h-246q-11 0 -19 8t-8 19.5t8 19.5t19 8h246q12 0 20 -8t8 -19.5t-8 -19.5
t-20 -8v0zM840 110h-246q-11 0 -19 8t-8 19t8 19t19 8h246q12 0 20 -8t8 -19t-8 -19t-20 -8v0zM403 411h-165q-34 0 -58 24t-24 58v164q0 34 24 58t58 24h165q33 0 57.5 -24t24.5 -58v-164q0 -34 -24.5 -58t-57.5 -24v0zM238 684q-11 0 -19 -8t-8 -19v-164q0 -12 8 -20
t19 -8h165q11 0 19 8t8 20v164q0 11 -8 19t-19 8h-165zM403 27h-165q-34 0 -58 24.5t-24 58.5v164q0 34 24 58t58 24h165q33 0 57.5 -24t24.5 -58v-164q0 -34 -24.5 -58.5t-57.5 -24.5v0zM238 301q-11 0 -19 -8t-8 -19v-164q0 -12 8 -20t19 -8h165q11 0 19 8t8 20v164
q0 11 -8 19t-19 8h-165zM238 301z" />
    <glyph glyph-name="laba" unicode="&#xe625;" 
d="M551 72q0 -61 -44 -45q-15 6 -15 7l-256 216h-39q-19 0 -32 13t-13 32v181q0 18 13 31.5t32 13.5h47l248 210q3 2 7 4t14 5t18 1t14 -14t6 -33v-622v0v0zM684 265q55 46 54 116t-54 110q-12 7 -23 -2.5t-16 -22.5l-5 -13q3 -4 7 -10t12.5 -24.5t11 -36t-4.5 -40
t-26 -39.5q-11 -15 5.5 -32.5t38.5 -5.5v0v0zM721 618q-5 5 -18 -3t-18 -21t7 -28q110 -94 110.5 -183t-110.5 -186q-16 -15 -2 -37t31 -15q59 27 97 76t47.5 106t-1.5 113.5t-48.5 104.5t-94.5 73v0v0zM721 618z" />
    <glyph glyph-name="notice" unicode="&#xe603;" 
d="M294 508q-9 5 -22 3q-20 -1 -20 -25q0 -5 2 -9t4 -5.5t8.5 -6.5t9.5 -7q52 -51 52 -124q0 -70 -49 -120q-4 -3 -11 -6.5t-9 -5.5t-4.5 -5.5t-2.5 -8.5q0 -10 7.5 -17.5t17.5 -7.5q18 0 31 12q67 65 67 160q0 52 -21.5 97t-59.5 76zM448 608q-11 9 -21.5 9t-17.5 -7.5
t-7 -18.5q0 -6 3 -10.5t5.5 -6.5t12.5 -8q94 -96 94 -231q0 -132 -91 -228l-8 -6t-12 -11.5t-4 -11.5q0 -11 7 -18.5t18 -7.5q9 0 19.5 8.5t15.5 14.5q48 52 75 118.5t27 140.5q0 80 -31 150.5t-85 123.5zM638 689q-11 18 -27 18q-10 0 -16.5 -7t-6.5 -17t12 -24
q104 -139 104 -315t-106 -316q-6 -8 -6 -18q0 -11 7.5 -18.5t18.5 -7.5q18 0 24 18q112 151 112 340q0 194 -116 347z" />
    <glyph glyph-name="zhuanfa" unicode="&#xe620;" 
d="M860.5 453q-10.5 0 -17.5 -7.5t-7 -17.5v0v-217q0 -26 -18 -44t-44 -18h-542q-25 0 -43 18t-18 44v434q0 25 18 43t43 18h266v0q10 0 16.5 7t6.5 17t-6.5 17t-16.5 7v0v0h-298q-34 0 -58 -24t-24 -58v-489q0 -34 24 -58t58 -24h603q34 0 58 24t24 58v245v0q0 10 -7 17.5
t-17.5 7.5zM918 624v0l-179 179l-6 6l-1 -1q-6 4 -13 4q-11 0 -19 -8t-8 -19q0 -7 4 -13l-1 -1l124 -125h-127q-62 -8 -107.5 -28.5t-75 -50t-49 -73t-29 -91.5t-14.5 -112q0 -11 8 -19t19 -8q21 0 26 19l2 8q5 60 12.5 102t23 79.5t39.5 60.5t60 38t86 21h126l-119 -120
l-4 -6q-3 -6 -3 -12q0 -12 8 -20t19 -8q7 0 13 3l184 184q3 2 3 6q0 3 -2 5z" />
    <glyph glyph-name="biaoqian" unicode="&#xe692;" 
d="M754 779h-485q-29 0 -40 -11.5t-11 -40.5v-510q0 -7 4 -14q2 -12 11 -18l263 -191q16 -12 32 0l263 191q9 6 11 17q3 6 3 12l1 514q0 28 -12 39.5t-40 11.5zM755 227l-243 -176l-243 176v501h486v-501zM390 420q-10 -60 -15 -100q-1 -11 8 -19t19 -8q6 0 13 3
q80 37 98 46q84 -41 97 -47q7 -3 13 -3q10 0 18.5 8t7.5 19l-12 100q45 52 73 85q9 9 4 22t-20 15q-18 3 -43.5 8t-42.5 8l-17 3q-32 58 -53 95q-12 20 -15.5 24.5t-9.5 4.5t-10 -5t-14 -24l-54 -95q-64 -14 -105 -22q-14 -2 -19 -12.5t3 -19.5l76 -86v0zM459 509z" />
    <glyph glyph-name="girl" unicode="&#xe612;" 
d="M512 896q-138 0 -256 -69t-187 -187t-69 -256t69 -256t187 -187t256 -69t256 69t187 187t69 256t-69 256t-187 187t-256 69zM704 192q14 0 23 -9t9 -23t-9 -23t-23 -9h-160v-64q0 -14 -9 -23t-23 -9t-23 9t-9 23v64h-160q-14 0 -23 9t-9 23t9 23t23 9h160v67
q-82 12 -137 75t-55 146q0 94 65 159t159 65t159 -65t65 -159q0 -83 -55 -146t-137 -75v-67h160zM672 480q0 67 -46.5 113.5t-113.5 46.5t-113.5 -46.5t-46.5 -113.5t46.5 -113.5t113.5 -46.5t113.5 46.5t46.5 113.5z" />
    <glyph glyph-name="man" unicode="&#xe613;" 
d="M512 896q-138 0 -256 -69t-187 -187t-69 -256t69 -256t187 -187t256 -69t256 69t187 187t69 256t-69 256t-187 187t-256 69zM800 416q0 -14 -9 -23t-23 -9t-23 9t-9 23v147l-122 -121h-3q61 -61 61 -151q0 -93 -65 -158.5t-159 -65.5t-159 65.5t-65 159t65 158.5t159 65
q62 0 115 -32q0 7 7 7l121 118h-147q-14 0 -23 9t-9 23t9 23t23 9h224q14 0 23 -9t9 -23v-224zM448 448q-67 0 -113.5 -46.5t-46.5 -113.5t46.5 -113.5t113.5 -46.5t113.5 46.5t46.5 113.5t-46.5 113.5t-113.5 46.5z" />
    <glyph glyph-name="s-down" unicode="&#xe61d;" 
d="M512 41l450 570h-900z" />
    <glyph glyph-name="yuyue01" unicode="&#xe619;" 
d="M512 -100q-91 0 -174.5 36t-143.5 96t-95.5 143t-35.5 174t35.5 174.5t95.5 143.5t143.5 95.5t174.5 35.5t174 -35.5t143 -95.5t96 -143.5t36 -174.5t-36 -174t-96 -143t-143 -96t-174 -36zM511.5 735q-104.5 0 -193.5 -51.5t-140.5 -140.5t-51.5 -193.5t51.5 -193.5
t140.5 -141t193.5 -52t193.5 52t141 141t52 193.5t-52 193.5t-141 140.5t-193.5 51.5zM512 179q-13 0 -22.5 9t-9.5 22v464q0 13 9.5 22t22.5 9t22 -9t9 -22v-464q0 -13 -9 -22t-22 -9zM512 745q-13 0 -22.5 9t-9.5 22v60q0 13 9.5 22.5t22.5 9.5t22 -9.5t9 -22.5v-60
q0 -13 -9 -22t-22 -9zM813 605q-13 0 -22 9.5t-9 22.5t9 22l44 44q9 9 22 9t22.5 -9t9.5 -22t-10 -22l-44 -44q-9 -10 -22 -10zM920 633q-13 0 -22 9l-79 79q-9 9 -9 22t9 22.5t22 9.5t22 -9l79 -79q9 -9 9 -22t-9 -22.5t-22 -9.5zM512 271q-32 0 -55 23t-23 55t23 55t55 23
t54.5 -23t23 -55t-22.5 -55t-55 -23zM512 364q-6 0 -10.5 -4.5t-4.5 -10.5t4.5 -10.5t10.5 -4.5t10.5 4.5t4.5 10.5t-4.5 10.5t-10.5 4.5z" />
    <glyph glyph-name="jia" unicode="&#xe622;" 
d="M512 832q-91 0 -174 -35.5t-143 -95.5t-95.5 -143t-35.5 -174t35.5 -174t95.5 -143t143 -95.5t174 -35.5t174 35.5t143 95.5t95.5 143t35.5 174t-35.5 174t-95.5 143t-143 95.5t-174 35.5zM781 366h-251v-250h-36v250h-250v36h250v251h36v-251h251v-36z" />
    <glyph glyph-name="start" unicode="&#xe618;" 
d="M768 -21q-5 0 -9 3l-244 128l-244 -128q-11 -6 -21.5 1.5t-8.5 19.5l47 272l-197 192q-10 9 -6 21t17 14l273 40l122 247q5 11 18 11t18 -11l122 -247l273 -40q12 -2 16 -14t-5 -21l-197 -192l46 -272q3 -12 -8 -20q-5 -4 -12 -4zM149 467l175 -170q8 -8 6 -19l-41 -241
l216 114q10 5 19 0l217 -114l-41 241q-2 11 6 19l175 170l-242 36q-11 1 -16 11l-108 219l-108 -219q-5 -10 -16 -11z" />
    <glyph glyph-name="write" unicode="&#xe60b;" 
d="M954 535q0 57 -39 96l-156 156q-40 40 -97 40t-97 -40l-490 -490l-2 -1v-1v0h-1v-1v-1h-1v-1h-1v-1l-1 -1v0v0v-1l-1 -1v0v0v-1h-1v-1v0v-1v-1l-1 -1l-1 -1v-2v0v-2h-1v-4v0v-300q0 -16 11 -27t26 -11h301l1 1h1h2h1l1 1l4 1l2 1h1v1h1l1 1h1l1 1v0l1 1h1l1 1l3 3
q320 320 490 489q40 40 40 98h-1zM503 620v0l44 -44l-349 -350l-44 45zM138 11v0v170l170 -170h-170zM229 195v0l350 349l93 -93l-350 -349zM398 26v0l-44 44l349 350l45 -45zM881 535v0v0q0 -27 -19 -45l-34 -34l-22 -22l-6 -6l-245 244l29 29l33 33q19 19 45 19t44 -19
l156 -155q19 -19 19 -44v0z" />
    <glyph glyph-name="meeting" unicode="&#xe6ad;" 
d="M341 454v33q0 22 12.5 39.5t33.5 25.5q11 3 24 3q44 1 133 1q31 -1 50.5 -20.5t20.5 -49.5v-33h34v19q1 26 2 31q5 23 23 37.5t43 14.5q4 1 59 1h78q25 -1 43.5 -16t24.5 -39q1 -7 1 -14v-99v-4h-6h-572q-56 0 -98 -28q-46 -30 -66 -80q-15 -38 -11 -81q4 -44 30 -80
q27 -40 71 -59q32 -14 69 -15q3 17 3 18q6 22 23.5 36t40.5 15h55h7q-47 6 -72.5 39t-21.5 73.5t34 67t69 25.5q41 0 70.5 -28t31.5 -67q3 -41 -23 -73t-70 -37h15h40q4 -1 7 -3l63 -63q3 -3 3 -5v-64l-1 -2h-5h-267q-148 2 -217 134q-29 55 -24 122q7 88 68 151
q54 56 130 69q2 0 42 5v0zM650 -27l-1 2q0 66 1 72q1 23 17.5 41t39.5 21q6 0 27 1h21.5h21.5q-46 6 -71.5 39t-21.5 72q4 40 33 67t69 28q39 0 68.5 -26.5t33.5 -66.5q5 -40 -21 -73.5t-71 -39.5h50q25 0 39 -7q36 -19 38 -57v-73h-273v0zM477.5 590q-42.5 0 -72.5 30
t-30 72.5t30 73t72.5 30t72.5 -30.5t30 -72.5t-30 -72.5t-72.5 -30zM889 692.5q0 -42.5 -30 -72.5t-73 -30t-73 30t-29.5 72.5t30.5 73t72.5 30t72.5 -30.5t30 -72.5z" />
    <glyph glyph-name="haircut" unicode="&#xe605;" 
d="M443 650q34 -116 35 -181l36 1q-1 69 -36 188q6 2 10 5q30 19 38 53.5t-11 64.5t-53.5 37.5t-64.5 -11.5t-38 -53.5t11 -64.5q25 -39 73 -39zM373 751q7 29 32 44.5t53.5 9t44.5 -31.5t9.5 -54t-31.5 -44.5t-54 -9t-45 31.5q-11 17 -11 38q0 8 2 16zM844 728l16 33
l97 -46l9 20l-128 61q-1 0 -3.5 1t-9 2t-12.5 -0.5t-13.5 -8t-12.5 -16.5l-378 -802l37 -17l167 289q1 1 2 3t5.5 8t9 10.5l11 11t13 8.5t14 3.5t14.5 -2.5l60 -27l12 25l-97 46l15 33l98 -46l8 19l-97 45l16 33l97 -46l7 16l-97 46l15 33l98 -46l6 13l-97 46l15 33l97 -46
l10 21l-97 46l15 33l98 -46l7 16l-97 45l15 33l97 -46l9 18l-98 45l16 33l97 -46l9 19l-97 46l15 32l97 -45l8 16zM538 445q-7 -9 -20 -9t-30 7t-32 15.5t-25 15.5l-10 7l-117 78l-3 -4q13 21 13 45t-13 46q-19 29 -53.5 37t-64.5 -11q-9 -6 -17 -14q-27 19 -57 23.5
t-40.5 1.5t-17.5 -6l15 -33q5 2 12.5 3.5t28.5 -2.5t40 -18l-2 -8q-2 -10 -2 -19q0 -25 13 -46q19 -29 53.5 -37t64.5 11q2 1 6 4l-2 -2l146 -114q18 -15 32 -30.5t19 -24.5l5 -8l60 -87l46 98zM266.5 539.5q-24.5 -15.5 -53.5 -9t-44.5 31.5t-9 53.5t31 44.5t53.5 9.5
t44.5 -31.5t9 -54t-31 -44.5zM619 240l-28 -48l140 -203q10 -15 22.5 -17t20.5 1.5t8 4.5q26 17 1 51l-141 240q-12 -11 -23 -29z" />
    <glyph glyph-name="s-right" unicode="&#xe655;" 
d="M855 384l-570 450v-900z" />
    <glyph glyph-name="integral" unicode="&#xe67b;" 
d="M510.5 369q121.5 0 224.5 31t163 84.5t60 116.5t-60 116t-163 84t-224.5 31t-224.5 -31t-163 -84t-60 -116t60 -116.5t163 -84.5t224.5 -31zM511 773q106 0 195.5 -23t141.5 -62.5t52 -86.5t-52 -87t-141.5 -63t-195.5 -23t-196 23t-142 63t-52 87t52 86.5t142 62.5
t196 23zM958 392l-3 29q-1 12 -10.5 19.5t-21.5 6.5t-20 -10.5t-6 -21.5l1 -9h-1l1 -1l1 -19q1 -2 1 -5q-1 -46 -53.5 -85t-141.5 -62t-194 -23t-194.5 23t-142 62.5t-53.5 85.5q1 2 1 4l3 29q1 12 -7 21.5t-20 10.5t-21.5 -6.5t-10.5 -19.5l-3 -29v-7v-0.5v-0.5
q0 -63 60 -116.5t163 -84t224.5 -30.5t224.5 30.5t163 84t60 116.5v3v5zM958 175v1q0 5 -1 11v0l-2 17q-1 12 -10.5 20t-21.5 6.5t-20 -11t-6 -21.5l2 -29q1 -2 1 -4q-2 -46 -55 -84.5t-141.5 -61t-192.5 -22.5q-105 0 -194 22.5t-141.5 61.5t-54.5 85q1 2 1 3l3 29
q1 12 -7 21.5t-20 11t-21.5 -6.5t-10.5 -20l-3 -29v-6q1 -63 60.5 -116t162.5 -84t225 -31q121 0 224 31t163 84t60 116v1.5v0.5v4z" />
    <glyph glyph-name="money-icon" unicode="&#xe652;" 
d="M685 372q13 0 22 8t9 19t-9 19t-22 8h-134v13l133 129q9 8 8 19q-1 12 -11 19q-8 6 -20 6q-13 0 -22 -9l-119 -114l-111 114q-9 9 -23 9q-11 0 -19 -5q-11 -7 -12 -19q-1 -11 7 -20l127 -130v-12h-119q-13 0 -22 -8t-9 -19t9 -19t22 -8h119v-21h-119q-13 0 -22 -8t-9 -19
t9 -19t22 -8h119v-101q0 -11 9 -18.5t22 -7.5t22 7.5t9 18.5v101h134q13 0 22 8t9 19t-9 19t-22 8h-134v21h134zM760 640h191q9 0 15 8t6 18.5t-6 18t-15 7.5h-191q-9 0 -15.5 -7.5t-6.5 -18t6.5 -18.5t15.5 -8zM973 513q-5 21 -26 21q-4 0 -7 -1q-11 -3 -16.5 -12.5
t-2.5 -20.5q12 -49 12 -99q0 -110 -54.5 -203.5t-148 -148t-203 -54.5t-203 54.5t-148 148t-54.5 203.5t54.5 203t148 147.5t203.5 54.5q89 0 170 -37q5 -3 11 -3q17 0 25 16q4 10 0.5 20.5t-13.5 15.5q-92 42 -193 42q-92 0 -176 -34.5t-149 -100t-100 -149t-35 -175.5
t35 -176t100 -149t149 -100t176 -35t175.5 35t148.5 100t100 149t35 176q0 57 -14 112z" />
    <glyph glyph-name="clean" unicode="&#xe6a8;" 
d="M294 255h496q14 0 23.5 9.5t9.5 22.5l-221 125v406q0 25 -17.5 42.5t-42.5 17.5t-42.5 -17.5t-17.5 -42.5v-406l-221 -125q0 -13 9.5 -22.5t23.5 -9.5zM863 172q0 17 -14.5 30t-31.5 13h-204q-4 0 -7 1l-87 -1h-240q-17 0 -32 -13t-15 -30l-21 -95l-69 -113
q-1 -5 -1.5 -8.5t3.5 -6t8 -4.5t10.5 -3.5t12.5 -2t13 -2t12 -3.5q37 -10 81 0q18 3 41 5q57 48 61 79q3 23 20 -31q6 -21 14 -50q3 -1 4 -3q8 -7 26 -11t32 -4h14q36 -9 76 -3l134 38l63 -27q44 -8 84 3l4 2q31 9 32 24q17 12 17 34z" />
    <glyph glyph-name="saomiao" unicode="&#xe673;" 
d="M932.5 192q-11.5 0 -19.5 -8t-8 -19v-174h-174q-11 0 -19 -8t-8 -19.5t8 -19.5t19 -8h201q12 0 20 8t8 19v202q0 11 -8 19t-19.5 8zM292 -9h-174v174q0 11 -8 19t-19 8t-19 -8t-8 -19v-202q0 -11 8 -19t19 -8h201q12 0 20 8t8 19.5t-8 19.5t-20 8zM933 411h-842
q-11 0 -19 -8t-8 -19t8 -19t19 -8h842q11 0 19 8t8 19t-8 19t-19 8zM118 603v175h174q12 0 20 7.5t8 19t-8 19.5t-20 8h-201q-11 0 -19 -8t-8 -19v-202q0 -11 8 -19t19 -8t19 8t8 19zM730 778h175v-175q0 -11 8 -19t19 -8t19 8t8 19v202q0 11 -8 19t-19 8h-202q-11 0 -19 -8
t-8 -19.5t8 -19t19 -7.5z" />
    <glyph glyph-name="talk" unicode="&#xe60a;" horiz-adv-x="1062" 
d="M715 431q0 -22 16 -37.5t38.5 -15.5t38 15.5t15.5 38t-15.5 38t-38 15.5t-38.5 -15.5t-16 -38.5v0zM477 431q0 -22 15.5 -37.5t38 -15.5t38 15.5t15.5 38t-15.5 38t-38 15.5t-38 -15.5t-15.5 -38.5v0zM238 431q0 -22 15.5 -37.5t38 -15.5t38.5 15.5t16 38t-16 38
t-38.5 15.5t-38 -15.5t-15.5 -38.5v0zM529 66q-75 0 -145 22l-36 -31h2l-64 -46l-1 83v37q-84 51 -133 129.5t-49 169.5q0 99 57 182.5t155 132.5t213.5 49t214 -49t155.5 -132.5t57 -182.5t-57 -183t-155.5 -132.5t-213.5 -48.5v0v0zM529 834q-127 0 -234.5 -54t-170 -147
t-62.5 -203q0 -96 49 -180t134 -141v-170l152 103q64 -16 132 -16q126 0 233.5 54t170 147t62.5 203t-62.5 203t-170 147t-233.5 54v0z" />
    <glyph glyph-name="s-left" unicode="&#xe698;" 
d="M169 384l570 -450v900z" />
    <glyph glyph-name="user" unicode="&#xe606;" 
d="M934 -25q-4 77 -55 128q-34 35 -101 64q-13 6 -38 16q-38 15 -53 23q-30 15 -38 29q-1 24 -1 60q3 3 5 6q9 12 18 30q12 24 18 55q10 5 16 13q19 23 24 64q3 29 -12 53q21 74 16 135q-4 55 -30 92q-28 38 -79 50q-36 40 -114 40h-1q-72 -2 -123 -30t-74 -80
q-33 -77 -4 -205q-16 -24 -13 -55q5 -41 24 -64q6 -8 17 -13q6 -32 18 -55q8 -17 18 -30q2 -3 5 -6q1 -36 -1 -59q-8 -15 -38 -30q-15 -8 -53 -23q-25 -10 -39 -16q-67 -29 -101 -64q-51 -51 -55 -128l-3 -40h850l-3 40v0zM153 -7q8 44 33 69q28 28 83 52q10 4 44 17.5
t51 21.5q54 27 68 66l1 2l1 3q1 21 1 87v12l-10 6h-1q-3 3 -6 7q-6 9 -12 20q-14 29 -17 56l-2 17l-17 1q-3 0 -6 4q-8 10 -11 35q-1 5 0 9t1.5 6.5t2 4l2 2l0.5 0.5l13 8l-4 15q-31 120 -2 185q32 73 144 76h1q29 0 48.5 -7.5t25.5 -18.5l5 -8l10 -1q37 -5 56 -31
q16 -23 19 -62q5 -60 -19 -132l-5 -16l14 -8l0.5 -0.5l2 -2t2 -4t1.5 -6.5t0 -9q-3 -25 -11 -35q-3 -4 -6 -4l-17 -1l-2 -17q-2 -26 -17 -56q-6 -13 -12 -20q-2 -3 -5 -6v-1l-11 -6v-12q0 -66 2 -87v-3l1 -2q14 -39 68 -66q17 -8 50.5 -21t44.5 -18q54 -23 82 -52
q25 -25 33 -69h-718v0z" />
    <glyph glyph-name="fuwu" unicode="&#xe604;" 
d="M424 735.5q-2 9.5 -10 14.5q-14 9 -29 16v0q-16 7 -33 11v0q-17 5 -36 7v0q-19 2 -40 2q-49 0 -93 -16t-79 -46t-54 -70q-19 -39 -19 -83q0 -76 38 -155q34 -72 102 -151q56 -64 143 -142q59 -53 169 -143l14 -13l15 13q109 90 169 143q86 78 142 142q69 79 103 151
q38 79 38 155q0 44 -19 83q-19 40 -54 70t-79.5 46t-92.5 16q-45 0 -81 -10q-35 -10 -64 -29q-28 -19 -52 -48q-22 -28 -45 -68l-136 -245q-4 -8 -1.5 -17t11 -14t17.5 -2t14 11l136 244q19 35 38 58q21 26 44 42t53 24v0q29 8 66 8q40 0 76 -13q37 -13 65 -38
q28 -23 42 -54q15 -30 15 -64q0 -68 -35 -140q-32 -64 -94 -135q-51 -59 -129 -130v0q-57 -52 -152 -130l-10 -8l-9 8q-95 78 -152 130v0q-78 71 -130 130q-61 71 -93 135q-35 72 -35 140q0 34 14 64q15 31 42 54q29 25 65 38q37 13 77 13q18 0 34 -2t30 -6v0q14 -3 26 -8
q12 -6 23 -13q8 -5 17.5 -3t14.5 10t3 17.5z" />
    <glyph glyph-name="guanjiaowangtubiao5050" unicode="&#xe643;" 
d="M823 -128h-622q-49 0 -84.5 34.5t-35.5 84.5v423q0 48 36 83.5t84 35.5h622q49 0 84.5 -34.5t35.5 -84.5v-423q0 -50 -35.5 -84.5t-84.5 -34.5zM201 465q-23 0 -37.5 -14.5t-14.5 -36.5v-423q0 -22 14.5 -36.5t37.5 -14.5h622q23 0 37.5 14.5t14.5 36.5v423
q0 22 -14.5 36.5t-37.5 14.5h-622zM299 465q-13 0 -23.5 10.5t-10.5 23.5v154q0 99 72.5 171t174.5 72q99 0 170 -67t77 -163v-17v-18q0 -12 -10.5 -23t-23 -11t-23.5 11t-11 23v22v13q-3 70 -55.5 118t-123.5 48q-73 0 -126 -52t-53 -123v-154q0 -18 -10 -28t-24 -10z
M593 269q0 32 -22.5 54.5t-54.5 22.5t-56.5 -23t-24.5 -54q0 -17 19.5 -40.5t19.5 -27.5v-73q0 -16 13 -27t29.5 -11t29.5 11t13 27v73q-2 8 16 31.5t18 36.5z" />
    <glyph glyph-name="repair" unicode="&#xe608;" 
d="M729 297q-16 15 -22 21.5t-16 12t-13.5 6t-14.5 -4.5t-17.5 -10.5t-24.5 -19.5q-7 8 -21.5 23.5t-21.5 21.5q5 6 15 16.5t18 19.5t14 17q14 16 35 7q101 -45 197 4q78 40 108.5 126.5t-7.5 164.5q-134 -141 -139 -146q-22 21 -63.5 63t-63.5 63q27 27 80.5 79.5
t61.5 59.5q-53 28 -122 14.5t-118 -60.5q-118 -113 -26 -298q-10 -9 -66 -56l-22 22q-131 134 -172 171q-43 40 -38 91q0 6 -3 13.5t-8 10.5q-28 18 -126 78q-49 -51 -51 -54q-15 -13 -3 -31q14 -20 45 -73q15 -24 30 -30t40 -3q15 3 34 -16q37 -36 222 -221
q-5 -5 -13 -11.5t-9 -8.5q-40 -33 -146.5 -122t-163.5 -138q-30 -24 -31 -53.5t26 -56.5l13 -13q58 -59 115 3q122 134 183 200q72 78 106 115l42 -43l-2.5 -3.5t-4.5 -5.5q-24 -26 -24 -39.5t24 -37.5l197 -198q17 -17 30.5 -17.5t30.5 16.5q20 19 81 81q22 22 22 36.5
t-22 37.5q-30 29 -88 88t-87 88zM162 -3q-13 1 -23 12t-10 24q1 15 12 25t26 9q14 -1 24 -11.5t10 -24.5q-1 -15 -12.5 -25t-26.5 -9zM288 134q-9 1 -15.5 8t-5.5 16q0 10 7.5 16.5t16.5 5.5q10 0 16.5 -7t5.5 -16q0 -10 -7.5 -16.5t-17.5 -6.5z" />
    <glyph glyph-name="naozhong" unicode="&#xe701;" 
d="M611 55h-39q-10 0 -10 -9q0 -21 -14.5 -36t-35.5 -15t-35.5 15t-14.5 36q0 9 -10 9h-40q-9 0 -9 -9q0 -45 32.5 -77t76.5 -32t76.5 32t32.5 77q0 9 -10 9v0zM920 105q0 6 -3 11q-6 48 -31.5 89t-65.5 69v170q0 96 -55 175t-145 113q-3 42 -34.5 70.5t-73.5 28.5
t-73.5 -28.5t-35.5 -70.5q-89 -34 -144 -113t-55 -175v-170q-40 -28 -65.5 -69t-31.5 -89q-4 -8 -2 -16q-1 -7 -1 -15q0 -9 10 -9h796q10 0 10 9q0 7 -1 15q1 3 1 5v0zM569 686q20 -5 39 -12q69 -29 111 -92.5t42 -137.5v-198q0 -6 5 -9q66 -33 87 -102h-682q21 70 87 102
q5 3 5 9v198q0 85 54 153.5t137 88.5q8 2 8 9v27q0 21 15 35.5t35 14.5t35 -14.5t15 -35.5v-27q0 -7 7 -9v0zM569 686z" />
    <glyph glyph-name="heart" unicode="&#xe6b6;" horiz-adv-x="1025" 
d="M736 831q-67 0 -125 -29.5t-99 -79.5q-40 50 -98.5 79.5t-125.5 29.5q-119 0 -203.5 -84.5t-84.5 -203.5q0 -61 32.5 -133t83.5 -137t112 -127t118 -107t102 -72.5t64 -28.5q17 -2 61 26t101 74t119 109t113.5 128t84.5 135t33 125q0 79 -38.5 147t-105 108.5
t-144.5 40.5z" />
    <glyph glyph-name="up" unicode="&#xe614;" 
d="M174 156l-59 57l397 399l397 -399l-59 -57l-338 336z" />
    <glyph glyph-name="wenjian-copy" unicode="&#xe601;" 
d="M193 860h433q15 0 26 -11l264 -264q11 -12 11 -27v-551q0 -40 -29 -69v0l-1 -1q-28 -28 -68 -28h-636q-40 0 -69 29v0q-29 29 -29 69v755q0 40 29 69q28 29 69 29v0zM298 132v0h367q10 0 16 6.5t6 15.5t-6 15.5t-16 6.5h-367q-9 0 -15.5 -6.5t-6.5 -15.5t6.5 -15.5
t15.5 -6.5v0zM298 287v0h251q8 0 14.5 6t6.5 15q0 10 -6 16.5t-15 6.5h-251q-9 0 -15.5 -6.5t-6.5 -16.5q0 -9 6.5 -15t15.5 -6v0zM298 441v0h426q9 0 15.5 6.5t6.5 15.5t-6.5 15.5t-15.5 6.5h-426q-9 0 -15.5 -6.5t-6.5 -15.5t6.5 -15.5t15.5 -6.5v0zM604 787v0h-411
q-11 0 -17 -8q-7 -7 -7 -17v-755q0 -10 7 -17v0q7 -8 17 -8h636q11 0 17 7l1 1q7 8 7 17v530h-167q-34 0 -58 24l-2 2q-23 24 -23 57v167zM817 581v0l-169 169v-130q0 -15 11 -27l1 -1q12 -11 27 -11h130z" />
    <glyph glyph-name="down" unicode="&#xe616;" 
d="M850 612l59 -57l-397 -399l-397 399l59 57l338 -336z" />
    <glyph glyph-name="huodong" unicode="&#xe637;" 
d="M245 752q-60 -37 -95 -101t-35 -138q0 -9 6.5 -15.5t16 -6.5t16 6.5t6.5 15.5q0 62 29 116.5t80 85.5q8 5 10 14t-3 16.5t-14 9.5t-17 -3v0zM609 449q-9 2 -17 -2t-11 -12q-23 -70 -79.5 -112.5t-124.5 -42.5q-9 0 -15.5 -6.5t-6.5 -15.5t6.5 -15.5t15.5 -6.5
q83 0 151 51t95 134q3 9 -1 17t-13 11v0zM897 535q-9 2 -17 -2.5t-10 -13.5q-11 -47 -41 -84.5t-72 -56.5q-8 -3 -11.5 -11.5t0.5 -16.5q6 -13 20 -13q6 0 10 2q51 23 87.5 68t49.5 102q2 9 -2.5 16.5t-13.5 9.5v0zM1008 543q0 91 -42.5 168t-115.5 122t-159 45
q-71 0 -135 -32q-84 50 -179 50q-98 0 -181 -51t-131.5 -139t-48.5 -192q0 -133 78 -236.5t197 -134.5l-21 -26q-9 -11 -3 -23t20 -12h58q-9 -18 -10.5 -33t4.5 -27.5t11 -19.5t15 -18q15 -17 19 -26q8 -16 4 -26q-5 -13 -19 -18q-9 -3 -12.5 -11.5t-0.5 -16.5q6 -14 21 -14
q4 0 8 1q4 2 10.5 5.5t17.5 14t16 23.5q11 29 -5 62q-7 14 -26 35q-12 13 -16 19.5t-2 18t15 29.5l0.5 0.5t0.5 1.5h40q14 0 20 12q6 11 -2 22l-16 22q96 17 170 83q11 -4 22 -6l-9 -10q-10 -11 -4 -23q6 -13 20 -13h33q-14 -27 -13.5 -51t7 -35.5t20.5 -28.5q15 -20 19 -29
q9 -18 4.5 -30.5t-9 -17.5t-10.5 -8q-9 -4 -12 -12t1 -16q6 -13 20 -13q4 0 9 2q23 10 39.5 39.5t-2.5 72.5q-6 15 -24 38q-12 15 -16 23t-2 23t15 36q2 2 3 7h25q14 0 20 12t-2 23l-9 11q110 23 182.5 115t72.5 213v0zM333 125l7 9q18 -2 37 -2h5.5h5.5l5 -7h-60v0z
M598 305q-1 -1 -1 -2q-10 -11 -20 -21q-82 -81 -192 -84h-1l-35 1h-4q-111 13 -187 103t-76 212q0 131 86.5 224t208.5 93q86 0 159 -51q29 -20 54 -48l3.5 -3.5l3.5 -3.5q7 -9 15 -20q5 -8 6 -10q7 -11 14 -23l2 -4t2 -3q7 -14 14 -31q0 -2 1.5 -6t2.5 -6q5 -16 7 -23
q0 -2 1 -6.5t2 -5.5q2 -12 4 -25l0.5 -4.5t1.5 -6.5q2 -19 2 -37q0 -119 -74 -209v0zM691 274q-16 0 -32 2l1 1q28 38 46 80v0.5t1 0.5q3 8 9 25l2 7q2 6 7 23l3 12q3 13 4 20q1 5 3 18q1 8 1 16q2 16 2 35t-2 40q0 2 -0.5 6.5t-1.5 6.5l-4 26q0 3 -1.5 8.5t-2.5 7.5
q-3 15 -5 22l-6 17q-5 12 -7 18q-1 2 -8 19l-2.5 5t-3 5.5t-2.5 5.5q-3 5 -10 17l-10 15q-5 8 -11 16q-11 14 -12 15q-7 9 -11 14l-15 15l-3.5 3.5l-3.5 3.5q37 13 75 13q104 0 177.5 -79t73.5 -190.5t-73.5 -190.5t-177.5 -79v0z" />
    <glyph glyph-name="chenggong1" unicode="&#xe6a2;" 
d="M517.5 827q-89.5 0 -171.5 -35t-141 -94t-93.5 -140.5t-34.5 -171t34.5 -171.5t93.5 -140.5t141 -93.5t171.5 -35t171 35t140.5 93.5t94 140.5t35 171.5t-35 171t-94 140.5t-140.5 94t-171 35zM517.5 -2q-105.5 0 -195.5 52t-142 141.5t-52 195t52 195t142 141.5
t195.5 52t195 -52t141.5 -141.5t52 -195t-52 -195t-141.5 -141.5t-195 -52zM495 218zM708 537l-237 -237l-130 131q-9 9 -21.5 9t-21.5 -9t-9 -21.5t9 -21.5l152 -152q9 -9 21.5 -9t21.5 9l258 258q9 9 9 21.5t-9 21.5t-21.5 9t-21.5 -9z" />
    <glyph glyph-name="instruction" unicode="&#xe657;" 
d="M511 833q-102 0 -192.5 -43.5t-152 -116t-89 -171.5t-8.5 -204q23 -123 128 -228t229 -128q104 -19 203.5 8.5t171.5 88.5t116 152t44 193q0 91 -36 174.5t-96 143.5t-143 95.5t-175 35.5v0zM511 -5q-88 0 -166.5 38t-131.5 100.5t-77 148t-7 176.5q20 107 110.5 197.5
t197.5 110.5q91 16 176.5 -7.5t148 -76.5t100.5 -131.5t38 -166.5q0 -106 -52 -195.5t-141.5 -141.5t-195.5 -52v0v0zM522 671q-69 -2 -110.5 -48.5t-43.5 -126.5q0 -5 2.5 -8t7.5 -3h42q9 0 10 10q3 114 92 114q93 0 93 -93q0 -11 -1 -19t-5 -16t-5 -12t-9.5 -12t-10.5 -10
t-15 -11.5t-16 -12.5q-34 -28 -48.5 -56t-13.5 -67v-52q0 -10 10 -10h42q10 0 10 10v51v1q-5 50 41 84q25 21 32 27t21.5 20.5t18 24t7.5 25t4 35.5q0 72 -41 113.5t-114 41.5v0zM540 118h-37q-5 0 -8.5 4t-3.5 9v36q0 5 3.5 9t8.5 4h37q5 0 9 -4t4 -9v-36q0 -5 -4 -9t-9 -4
z" />
    <glyph glyph-name="envelope" unicode="&#xe621;" 
d="M800 83h-575q-35 0 -59.5 25t-24.5 60v427q0 35 24.5 59.5t59.5 24.5h575q40 0 53 -23q15 -26 -9 -50l-10 -10l-1 -1v0l-26 -26v0q-78 -81 -102 -104l-105 -107q-9 -9 -65 -66l-6 -6q-4 -4 -10 -4v0q-6 0 -11 4l-292 300q-10 10 0.5 20.5t20.5 -0.5l282 -289q31 32 60 62
l244 247q8 9 4 16q-4 8 -27 8h-575q-22 0 -38.5 -16t-16.5 -39v-427q0 -23 16.5 -39t38.5 -16h575q23 0 39 16t16 39v370q0 39 21 73q8 12 20.5 4.5t4.5 -20.5q-17 -26 -17 -57v0v-370q0 -35 -24.5 -60t-59.5 -25v0z" />
    <glyph glyph-name="cuo" unicode="&#xe61b;" 
d="M873.5 745.5q-73.5 73.5 -167.5 112t-194 38.5t-194 -38.5t-168 -112t-112 -169t-38 -192.5t38 -192.5t112 -169t168 -112t194 -38.5t194 38.5t167.5 112t112 169t38.5 192.5t-38.5 192.5t-112 169zM838 58q-65 -65 -149.5 -100t-176.5 -35t-176.5 35t-149.5 100
q-88 89 -119.5 207.5t0 237t119.5 207.5q65 65 149.5 100t176.5 35t176.5 -35t149.5 -100q66 -66 100.5 -152.5t34.5 -173.5t-34.5 -173.5t-100.5 -152.5zM741 613q-7 8 -17.5 8t-17.5 -8l-194 -193l-193 193q-7 8 -18 8t-18 -8q-7 -7 -7 -17.5t7 -17.5l193 -194l-193 -193
q-7 -7 -7 -18t7 -18q8 -7 18.5 -7t17.5 7l193 193l193 -193q7 -7 17.5 -7t18 7.5t7.5 18t-7 17.5l-193 193l193 193q7 7 7.5 18t-7.5 18z" />
    <glyph glyph-name="liaotian" unicode="&#xe623;" 
d="M486 819q-116 0 -214 -49.5t-155 -134.5t-57 -186q0 -92 49.5 -172t133.5 -133v-114q0 -11 6.5 -18t16.5 -7q6 0 12 3l116 78q37 -8 90 -8q116 0 214 49.5t155 134.5t57 186q1 101 -56 186.5t-154.5 135t-213.5 49.5zM486 140q-35 0 -79 8l-13 3q-11 2 -23 -5l-11 -8
l-55 -37v43v17q0 19 -16 27l-15 9q-72 43 -112.5 109.5t-40.5 141.5q0 83 48.5 154t132 112.5t182.5 41.5t183 -41.5t132.5 -112.5t48.5 -154q1 -83 -48 -154t-132.5 -112.5t-181.5 -41.5zM244 438.5q0 -21.5 15 -36.5t36.5 -15t36 15t14.5 36.5t-14.5 36.5t-36 15
t-36.5 -15t-15 -36.5zM438 438.5q0 -21.5 15 -36.5t36 -15t36 15t15 36.5t-15 36.5t-36 15t-36 -15t-15 -36.5zM625 438.5q0 -21.5 15 -36.5t36 -15t36 15t15 36.5t-15 36.5t-36 15t-36 -15t-15 -36.5zM918 359l-1 1.5t-2 1.5q-10 -38 -28 -73l1 -1.5l1 -1.5q12 -29 12 -60
q0 -42 -22.5 -79.5t-63.5 -61.5l-8 -5q-9 -4 -9 -15v-9v-25l-31 21l-7 5q-6 3 -13 2l-7 -2q-24 -4 -44 -4q-52 0 -98 22q-44 -11 -90 -13q79 -67 189 -67q33 0 56 5l74 -49q3 -2 7 -2q6 0 10.5 4t4.5 11v73q53 32 84 82.5t31 108.5q0 72 -46 131z" />
    <glyph glyph-name="money-bag" unicode="&#xe617;" 
d="M807 521q-32 34 -70 63q-1 1 -10 7q34 12 55 37.5t21 57.5q0 43 -35.5 72.5t-85.5 29.5q-21 0 -41 -7q-7 -3 -14 -7q-5 -2 -8 2v0q-10 14 -24 26q-34 29 -73.5 29t-73.5 -29q-14 -12 -23 -26v0q-4 -4 -9 -2q-6 4 -14 7q-20 7 -41 7q-50 0 -85.5 -29.5t-35.5 -72.5
q0 -27 15.5 -50t41.5 -37q-6 -4 -11 -8q-38 -28 -70 -62q-103 -110 -103 -233q0 -88 31 -157t85.5 -112t125.5 -65t153 -22q149 0 251 61q152 91 152 295q0 115 -104 225v0zM508 -6q-72 0 -133.5 18.5t-108.5 55t-73.5 95t-26.5 133.5q0 102 89 196q29 30 63 56q11 8 21 14
q5 3 7 5q22 15 21 37t-23 33v0v0l-1 1h-1v0l-1 1v0h-1v0h-1v0l-3 2q-19 5 -30.5 17.5t-11.5 27.5q0 19 19.5 33.5t47.5 14.5q12 0 22 -4q5 -1 7 -3l3 -1q18 -9 39 -4.5t34 20.5l2 3q5 8 15 16q19 17 39 17t38 -17q10 -8 15 -16l2 -3q13 -16 33.5 -20.5t39.5 3.5l3 2q2 2 7 3
q11 4 22 4q28 0 47.5 -14.5t19.5 -33.5q0 -15 -11.5 -27.5t-30.5 -17.5l-4 -2q-10 -4 -15 -5q-28 -9 -32 -32.5t19 -39.5q5 -3 9 -6q10 -7 20 -15q35 -26 64 -57q90 -94 90 -188q0 -79 -25.5 -138t-73 -94.5t-110 -52.5t-141.5 -17v0v0zM620 311q9 0 15.5 6.5t6.5 16
t-6.5 16t-15.5 6.5h-91l84 87q7 7 7 16t-6.5 16t-16 7t-15.5 -7l-74 -75l-73 75q-7 7 -16 7t-15.5 -7t-6.5 -16t6 -16l85 -87h-91q-10 0 -16.5 -6.5t-6.5 -16t6.5 -16t16.5 -6.5h89v-23h-89q-10 0 -16.5 -6.5t-6.5 -16t6.5 -16.5t16.5 -7h89v-65q0 -8 6.5 -13t15.5 -5
t15.5 5t6.5 13v65h90q9 0 15.5 7t6.5 16.5t-6.5 16t-15.5 6.5h-90v23h90z" />
    <glyph glyph-name="fabu" unicode="&#xe73d;" 
d="M183 237q-1 34 9 79q7 36 18 62t24 39q17 18 33 34l302 302q31 31 73 38q39 7 76 -9q22 -10 41 -28q7 -8 24.5 -25t26.5 -27q31 -30 38 -68q7 -33 -2 -63q-9 -33 -32 -56q-64 -64 -181.5 -181t-154.5 -155q-16 -15 -39 -24q-26 -10 -56 -18q-13 -4 -40 -7q-9 -1 -40 -3
q-46 -3 -78 14q-22 11 -32 36q-12 27 -10 60zM286 230q46 5 50 5q25 3 54 14q12 4 20 11l203 203l5 5l-92 93q-4 -4 -4 -5q-169 -168 -207 -206q-5 -5 -6 -9q-10 -29 -14 -41q-2 -11 -6 -37q0 -2 -3 -33zM692 543q43 42 47 47q7 7 6.5 17t-7.5 17l-56 56q-7 8 -18 8t-18 -7
l-45 -45q39 -39 91 -93zM517 78h277q32 0 46 -31q7 -16 4 -32t-16 -28q-14 -14 -34 -14h-556q-14 0 -27 9.5t-18 23.5q-11 30 9 54q14 18 35 18h280z" />
  </font>
</defs>
</svg>
